# xmcd CD database file
# Generated: Mon Feb 3 08:52:19 2003 by KSCD
# 
# Track frame offsets:
#       300
#       11925
#       25575
#       39150
#       50925
#       68625
#       81825
#       94875
#       107250
#       117225
#       131175
#       144150
#       159075
#       178125
#       189750
#       202425
#       216750
#       227925
#       242850
#
# Disc length: 3418 seconds
#
# Revision: 2
# Processed by: cddbd v1.4PL0 Copyright (c) Steve Scherf et al.
# Submitted via: Kscd 1.3.3
#
DISCID=0a0d5613
DTITLE=Waylon Jennings - Custom Mix
DYEAR=1900
DGENRE=
TTITLE0=American By Birth
TTITLE1=Amanda
TTITLE2=A Good Hearted Woman
TTITLE3=Bob Wills Is Still The King
TTITLE4=The Conversation
TTITLE5=Are You Sure Hank Done It This Way
TTITLE6=The Eagle
TTITLE7=Ghost Of General Lee
TTITLE8=Good Ol' Boys
TTITLE9=Highwaymen
TTITLE10=Just To Satisfy You
TTITLE11=Lucenbach, Texas
TTITLE12=I've Always Been Crazy
TTITLE13=Mama's, Don't Let Your Babies Grow Up To Be Cowboys
TTITLE14=Ramblin' Man
TTITLE15=There Ain't No Good Chain Gang
TTITLE16=The Yellow Rose Of Texas
TTITLE17=Where Corn Don't Grow
TTITLE18=Wrong
EXTD=
EXTT0=
EXTT1=
EXTT2=
EXTT3=
EXTT4=
EXTT5=
EXTT6=
EXTT7=
EXTT8=
EXTT9=
EXTT10=
EXTT11=
EXTT12=
EXTT13=
EXTT14=
EXTT15=
EXTT16=
EXTT17=
EXTT18=
PLAYORDER=
